<?xml version="1.0" encoding="utf-8"?>
<!-- Generator: Adobe Illustrator 21.0.2, SVG Export Plug-In . SVG Version: 6.00 Build 0)  -->
<svg version="1.1" id="Layer_1" xmlns="http://www.w3.org/2000/svg" xmlns:xlink="http://www.w3.org/1999/xlink" x="0px" y="0px"
	 viewBox="0 0 792 612" style="enable-background:new 0 0 792 612;" xml:space="preserve">
<style type="text/css">
	.st0{fill:#FFFFFF;}
	.st1{fill:#D9DEDE;stroke:#D9DEDE;stroke-miterlimit:10;}
</style>
<g>
	<g>
		<path class="st0" d="M396,350.9c-27.3-0.3-50-22.5-50-50c0-27.5,22.7-49.6,50-50c9.6-0.1,9.7-15.1,0-15
			c-27.1,0.3-51.3,17.1-60.9,42.4c-9.5,25-1.7,54.8,18.8,72c11.9,10,26.6,15.3,42.1,15.5C405.7,366,405.7,351,396,350.9L396,350.9z"
			/>
	</g>
</g>
<g>
	<g>
		<path class="st0" d="M396,365.9c27.1-0.3,51.3-17.1,60.9-42.4c9.5-25,1.7-54.8-18.8-72c-11.9-10-26.6-15.3-42.1-15.5
			c-9.7-0.1-9.7,14.9,0,15c27.3,0.3,50,22.5,50,50c0,27.5-22.7,49.6-50,50C386.4,351,386.3,366,396,365.9L396,365.9z"/>
	</g>
</g>
<circle class="st1" cx="395" cy="243.4" r="7"/>
<circle class="st1" cx="396" cy="358.2" r="7"/>
</svg>
