<?xml version="1.0" encoding="utf-8"?>
<!-- Generator: Adobe Illustrator 21.0.2, SVG Export Plug-In . SVG Version: 6.00 Build 0)  -->
<svg version="1.1" id="Layer_1" xmlns="http://www.w3.org/2000/svg" xmlns:xlink="http://www.w3.org/1999/xlink" x="0px" y="0px"
	 viewBox="0 0 72 72" style="enable-background:new 0 0 72 72;" xml:space="preserve">
<style type="text/css">
	.st0{fill:#FFFFFF;}
	.st1{fill:#D9DEDE;}
</style>
<g>
	<g>
		<path class="st0" d="M36,63.9C20.8,63.6,8.1,51.5,8.1,36S20.8,8.5,36,8.2c4.8-0.1,4.8-7.6,0-7.5C16.7,1.1,0.7,16.5,0.6,36
			c0,19.6,16.2,35,35.4,35.4C40.8,71.5,40.8,64,36,63.9L36,63.9z"/>
	</g>
</g>
<g>
	<g>
		<path class="st0" d="M36,71.4C55.3,71,71.3,55.6,71.4,36c0-19.6-16.2-35-35.4-35.4c-4.8-0.1-4.8,7.4,0,7.5
			C51.2,8.5,63.9,20.6,63.9,36S51.2,63.6,36,63.9C31.2,64,31.2,71.5,36,71.4L36,71.4z"/>
	</g>
</g>
<circle class="st1" cx="36" cy="4.4" r="3.7"/>
<circle class="st1" cx="36" cy="67.7" r="3.7"/>
</svg>
